# xmcd
#
# Track frame offsets:
#	150
#	20372
#	46399
#	67566
#	91912
#	111339
#	149229
#	164902
#	177266
#	205648
#	232363
#	245775
#
# Disc length: 3655 seconds
#
# Revision: 0
# Processed by: cddbd v1.5.2PL0 Copyright (c) Steve Scherf et al.
# Submitted via: EasyCDDAExtractor 16.0.1.1
#
DISCID=b10e450c
DTITLE=Tab Benoit - Voice Of The Wetlands
DYEAR=2005
DGENRE=Blues
TTITLE0=Bayou Breeze
TTITLE1=Louisiana Sunshine
TTITLE2=Clean Water
TTITLE3=We Ain't Gonna Lose No More (Without A Fight)
TTITLE4=Kiddin' Me
TTITLE5=Lightning And Thunder
TTITLE6=We Make A Good Gumbo
TTITLE7=Weary Silent Night
TTITLE8=Me Donkey Want Water
TTITLE9=Heart Of Stone
TTITLE10=Louisania Man
TTITLE11=Me Donkey Want Water
EXTD=
EXTT0=
EXTT1=
EXTT2=
EXTT3=
EXTT4=
EXTT5=
EXTT6=
EXTT7=
EXTT8=
EXTT9=
EXTT10=
EXTT11=
PLAYORDER=
